<svg xmlns="http://www.w3.org/2000/svg" width="58" height="24" viewBox="0 0 58 24">
    <g fill="none" fill-rule="evenodd">
        <path d="M0 0h58v24H0z"/>
        <path fill="#DC0714" fill-rule="nonzero" d="M8.862 20.49V6.16c0-1.477-.232-3.91 1.456-4.535v-.1H4v.1c1.687.624 1.488 3.023 1.488 4.535v12.39c0 1.48.199 3.911-1.488 4.503v.099h13.595l1.721-4.372h-.1c-1.653 1.381-3.606 2.136-5.854 2.007l-4.5-.298zM25.535 12.6h2.448c1.026 0 2.415-.065 2.945.92h.1V10.04h-.1c-.396.197-.928.197-1.423.197h-3.97V4.124c1.06-.199 2.216-.232 3.376-.232 1.52 0 2.877.132 3.903 1.284h.099V1.361h-.1c-.43.231-.993.164-1.555.164H20.671v.1c1.69.624 1.49 3.023 1.49 4.535v12.39c0 1.48.2 3.911-1.49 4.503v.099h6.253v-.099c-1.652-.625-1.389-3.024-1.389-4.502V12.6zm26.636-10.78C50.218 1.361 48.166 1 46.149 1c-6.782 0-11.612 4.503-11.612 11.305 0 7.035 4.83 11.374 12.637 11.374 1.72 0 3.44-.264 4.997-.988l1.685-3.812h-.099c-2.084 1.185-4.566 2.07-7.046 2.07-5.095 0-8.403-4.305-8.403-9.136 0-4.765 3.176-8.084 7.741-8.084 2.184 0 4.3.723 6.122 1.872v-3.78z"/>
    </g>
</svg>
